<svg width="16" height="24" viewBox="0 0 16 24" fill="none" xmlns="http://www.w3.org/2000/svg">
<path d="M14.4202 14.9672H5.11555L5.58274 14.0156L13.3452 14.0016C13.6077 14.0016 13.8327 13.8141 13.8796 13.5547L14.9546 7.5375C14.9827 7.37969 14.9406 7.21719 14.8374 7.09375C14.7865 7.033 14.7229 6.98407 14.6511 6.95034C14.5793 6.91661 14.5011 6.8989 14.4218 6.89844L4.5468 6.86562L4.46243 6.46875C4.4093 6.21562 4.18118 6.03125 3.9218 6.03125H1.50774C1.36146 6.03125 1.22116 6.08936 1.11773 6.1928C1.01429 6.29624 0.956177 6.43653 0.956177 6.58281C0.956177 6.7291 1.01429 6.86939 1.11773 6.97283C1.22116 7.07626 1.36146 7.13438 1.50774 7.13438H3.47493L3.84368 8.8875L4.75149 13.2828L3.58274 15.1906C3.52204 15.2725 3.48549 15.3698 3.4772 15.4714C3.46892 15.573 3.48924 15.675 3.53586 15.7656C3.62961 15.9516 3.81868 16.0688 4.02805 16.0688H5.0093C4.80011 16.3466 4.68712 16.685 4.68743 17.0328C4.68743 17.9172 5.40618 18.6359 6.29055 18.6359C7.17493 18.6359 7.89368 17.9172 7.89368 17.0328C7.89368 16.6844 7.77805 16.3453 7.5718 16.0688H10.089C9.8798 16.3466 9.76681 16.685 9.76711 17.0328C9.76711 17.9172 10.4859 18.6359 11.3702 18.6359C12.2546 18.6359 12.9734 17.9172 12.9734 17.0328C12.9734 16.6844 12.8577 16.3453 12.6515 16.0688H14.4218C14.7249 16.0688 14.9734 15.8219 14.9734 15.5172C14.9725 15.3711 14.9138 15.2312 14.8102 15.1282C14.7065 15.0251 14.5664 14.9673 14.4202 14.9672V14.9672ZM4.77649 7.95312L13.7734 7.98281L12.8921 12.9172L5.82493 12.9297L4.77649 7.95312ZM6.29055 17.5266C6.01868 17.5266 5.7968 17.3047 5.7968 17.0328C5.7968 16.7609 6.01868 16.5391 6.29055 16.5391C6.56243 16.5391 6.7843 16.7609 6.7843 17.0328C6.7843 17.1638 6.73228 17.2894 6.63969 17.3819C6.54709 17.4745 6.4215 17.5266 6.29055 17.5266V17.5266ZM11.3702 17.5266C11.0984 17.5266 10.8765 17.3047 10.8765 17.0328C10.8765 16.7609 11.0984 16.5391 11.3702 16.5391C11.6421 16.5391 11.864 16.7609 11.864 17.0328C11.864 17.1638 11.812 17.2894 11.7194 17.3819C11.6268 17.4745 11.5012 17.5266 11.3702 17.5266V17.5266Z" fill="white"/>
</svg>
